<?xml version="1.0" encoding="utf-8" standalone="yes"?>
<!DOCTYPE svg PUBLIC "-//W3C//DTD SVG 1.1//EN" "http://www.w3.org/Graphics/SVG/1.1/DTD/svg11.dtd">
<svg width="758" height="678" viewBox="0 0 758 678" style="fill:none;stroke:none;fill-rule:evenodd;clip-rule:evenodd;stroke-linecap:round;stroke-linejoin:round;stroke-miterlimit:1.5;" version="1.1" xmlns="http://www.w3.org/2000/svg" xmlns:xlink="http://www.w3.org/1999/xlink"><style class="text-font-style fontImports" data-font-family="Roboto">@import url('https://fonts.googleapis.com/css2?family=Roboto:wght@400;700&amp;display=block');</style><g id="items" style="isolation: isolate"><g id="blend" style="mix-blend-mode: normal"><g id="g-root-cp_0-0_cell-0-0_1uo1ru6uv0efc-fill" data-item-order="-413208" transform="translate(26, 98)"><g id="cp_0-0_cell-0-0_1uo1ru6uv0efc-fill" stroke="none" fill="#f5f5f5"><g><path d="M 10 16C 10 12.6863 12.6863 10 16 10L 22 10L 22 22L 10 22L 10 16ZM 22 10L 22 22L 196 22L 196 10L 22 10ZM 208 16C 208 12.6863 205.3137 10 202 10L 196 10L 196 22L 208 22L 208 16ZM 208 22L 10 22L 10 46L 208 46L 208 22ZM 10 52C 10 55.3137 12.6863 58 16 58L 22 58L 22 46L 10 46L 10 52ZM 196 58L 196 46L 22 46L 22 58L 196 58ZM 202 58C 205.3137 58 208 55.3137 208 52L 208 46L 196 46L 196 58L 202 58Z"></path></g></g></g><g id="g-root-cp_1-0_cell-1-0_1q889pquv0f7m-fill" data-item-order="-413176" transform="translate(26, 158)"><g id="cp_1-0_cell-1-0_1q889pquv0f7m-fill" stroke="none" fill="#fffbda"><g><path d="M 10 16C 10 12.6863 12.6863 10 16 10L 22 10L 22 22L 10 22L 10 16ZM 22 10L 22 22L 196 22L 196 10L 22 10ZM 208 16C 208 12.6863 205.3137 10 202 10L 196 10L 196 22L 208 22L 208 16ZM 208 22L 10 22L 10 46L 208 46L 208 22ZM 10 52C 10 55.3137 12.6863 58 16 58L 22 58L 22 46L 10 46L 10 52ZM 196 58L 196 46L 22 46L 22 58L 196 58ZM 202 58C 205.3137 58 208 55.3137 208 52L 208 46L 196 46L 196 58L 202 58Z"></path></g></g></g><g id="g-root-cp_2-0_cell-2-0_1hcl9guuv0g0b-fill" data-item-order="-413148" transform="translate(26, 218)"><g id="cp_2-0_cell-2-0_1hcl9guuv0g0b-fill" stroke="none" fill="#fff2e5"><g><path d="M 10 16C 10 12.6863 12.6863 10 16 10L 22 10L 22 22L 10 22L 10 16ZM 22 10L 22 22L 196 22L 196 10L 22 10ZM 208 16C 208 12.6863 205.3137 10 202 10L 196 10L 196 22L 208 22L 208 16ZM 208 22L 10 22L 10 58L 208 58L 208 22ZM 10 64C 10 67.3137 12.6863 70 16 70L 22 70L 22 58L 10 58L 10 64ZM 196 70L 196 58L 22 58L 22 70L 196 70ZM 202 70C 205.3137 70 208 67.3137 208 64L 208 58L 196 58L 196 70L 202 70Z"></path></g></g></g><g id="g-root-cp_3-0_cell-3-0_1hcl9guuv0g0c-fill" data-item-order="-413120" transform="translate(26, 290)"><g id="cp_3-0_cell-3-0_1hcl9guuv0g0c-fill" stroke="none" fill="#ffeceb"><g><path d="M 10 16C 10 12.6863 12.6863 10 16 10L 22 10L 22 22L 10 22L 10 16ZM 22 10L 22 22L 196 22L 196 10L 22 10ZM 208 16C 208 12.6863 205.3137 10 202 10L 196 10L 196 22L 208 22L 208 16ZM 208 22L 10 22L 10 46L 208 46L 208 22ZM 10 52C 10 55.3137 12.6863 58 16 58L 22 58L 22 46L 10 46L 10 52ZM 196 58L 196 46L 22 46L 22 58L 196 58ZM 202 58C 205.3137 58 208 55.3137 208 52L 208 46L 196 46L 196 58L 202 58Z"></path></g></g></g><g id="g-root-cp_4-0_cell-4-0_1cwrrceuv0gsl-fill" data-item-order="-413092" transform="translate(26, 350)"><g id="cp_4-0_cell-4-0_1cwrrceuv0gsl-fill" stroke="none" fill="#ffebf7"><g><path d="M 10 16C 10 12.6863 12.6863 10 16 10L 22 10L 22 22L 10 22L 10 16ZM 22 10L 22 22L 196 22L 196 10L 22 10ZM 208 16C 208 12.6863 205.3137 10 202 10L 196 10L 196 22L 208 22L 208 16ZM 208 22L 10 22L 10 46L 208 46L 208 22ZM 10 52C 10 55.3137 12.6863 58 16 58L 22 58L 22 46L 10 46L 10 52ZM 196 58L 196 46L 22 46L 22 58L 196 58ZM 202 58C 205.3137 58 208 55.3137 208 52L 208 46L 196 46L 196 58L 202 58Z"></path></g></g></g><g id="g-root-cp_5-0_cell-5-0_141r86muv0efi-fill" data-item-order="-413064" transform="translate(26, 410)"><g id="cp_5-0_cell-5-0_141r86muv0efi-fill" stroke="none" fill="#faf0ff"><g><path d="M 10 16C 10 12.6863 12.6863 10 16 10L 22 10L 22 22L 10 22L 10 16ZM 22 10L 22 22L 196 22L 196 10L 22 10ZM 208 16C 208 12.6863 205.3137 10 202 10L 196 10L 196 22L 208 22L 208 16ZM 208 22L 10 22L 10 58L 208 58L 208 22ZM 10 64C 10 67.3137 12.6863 70 16 70L 22 70L 22 58L 10 58L 10 64ZM 196 70L 196 58L 22 58L 22 70L 196 70ZM 202 70C 205.3137 70 208 67.3137 208 64L 208 58L 196 58L 196 70L 202 70Z"></path></g></g></g><g id="g-root-cp_6-0_cell-6-0_zlxq26uv0f7r-fill" data-item-order="-413036" transform="translate(26, 482)"><g id="cp_6-0_cell-6-0_zlxq26uv0f7r-fill" stroke="none" fill="#f3f0ff"><g><path d="M 10 16C 10 12.6863 12.6863 10 16 10L 22 10L 22 22L 10 22L 10 16ZM 22 10L 22 22L 196 22L 196 10L 22 10ZM 208 16C 208 12.6863 205.3137 10 202 10L 196 10L 196 22L 208 22L 208 16ZM 208 22L 10 22L 10 46L 208 46L 208 22ZM 10 52C 10 55.3137 12.6863 58 16 58L 22 58L 22 46L 10 46L 10 52ZM 196 58L 196 46L 22 46L 22 58L 196 58ZM 202 58C 205.3137 58 208 55.3137 208 52L 208 46L 196 46L 196 58L 202 58Z"></path></g></g></g><g id="g-root-cp_7-0_cell-7-0_zlxq26uv0f7s-fill" data-item-order="-413008" transform="translate(26, 542)"><g id="cp_7-0_cell-7-0_zlxq26uv0f7s-fill" stroke="none" fill="#edf4ff"><g><path d="M 10 16C 10 12.6863 12.6863 10 16 10L 22 10L 22 22L 10 22L 10 16ZM 22 10L 22 22L 196 22L 196 10L 22 10ZM 208 16C 208 12.6863 205.3137 10 202 10L 196 10L 196 22L 208 22L 208 16ZM 208 22L 10 22L 10 58L 208 58L 208 22ZM 10 64C 10 67.3137 12.6863 70 16 70L 22 70L 22 58L 10 58L 10 64ZM 196 70L 196 58L 22 58L 22 70L 196 70ZM 202 70C 205.3137 70 208 67.3137 208 64L 208 58L 196 58L 196 70L 202 70Z"></path></g></g></g><g id="g-root-cp_0-1_cell-0-1_v647xquv0g01-fill" data-item-order="-412976" transform="translate(236, 98)"><g id="cp_0-1_cell-0-1_v647xquv0g01-fill" stroke="none" fill="#f5f5f5"><g><path d="M 10 16C 10 12.6863 12.6863 10 16 10L 22 10L 22 22L 10 22L 10 16ZM 22 10L 22 22L 106 22L 106 10L 22 10ZM 118 16C 118 12.6863 115.3137 10 112 10L 106 10L 106 22L 118 22L 118 16ZM 118 22L 10 22L 10 46L 118 46L 118 22ZM 10 52C 10 55.3137 12.6863 58 16 58L 22 58L 22 46L 10 46L 10 52ZM 106 58L 106 46L 22 46L 22 58L 106 58ZM 112 58C 115.3137 58 118 55.3137 118 52L 118 46L 106 46L 106 58L 112 58Z"></path></g></g></g><g id="g-root-cp_1-1_cell-1-1_mah7ouuv0gsr-fill" data-item-order="-412940" transform="translate(236, 158)"><g id="cp_1-1_cell-1-1_mah7ouuv0gsr-fill" stroke="none" fill="#fffbda"><g><path d="M 10 16C 10 12.6863 12.6863 10 16 10L 22 10L 22 22L 10 22L 10 16ZM 22 10L 22 22L 106 22L 106 10L 22 10ZM 118 16C 118 12.6863 115.3137 10 112 10L 106 10L 106 22L 118 22L 118 16ZM 118 22L 10 22L 10 46L 118 46L 118 22ZM 10 52C 10 55.3137 12.6863 58 16 58L 22 58L 22 46L 10 46L 10 52ZM 106 58L 106 46L 22 46L 22 58L 106 58ZM 112 58C 115.3137 58 118 55.3137 118 52L 118 46L 106 46L 106 58L 112 58Z"></path></g></g></g><g id="g-root-cp_2-1_cell-2-1_mah7ouuv0gss-fill" data-item-order="-412922" transform="translate(236, 218)"><g id="cp_2-1_cell-2-1_mah7ouuv0gss-fill" stroke="none" fill="#fff2e5"><g><path d="M 10 16C 10 12.6863 12.6863 10 16 10L 22 10L 22 22L 10 22L 10 16ZM 22 10L 22 22L 106 22L 106 10L 22 10ZM 118 16C 118 12.6863 115.3137 10 112 10L 106 10L 106 22L 118 22L 118 16ZM 118 22L 10 22L 10 58L 118 58L 118 22ZM 10 64C 10 67.3137 12.6863 70 16 70L 22 70L 22 58L 10 58L 10 64ZM 106 70L 106 58L 22 58L 22 70L 106 70ZM 112 70C 115.3137 70 118 67.3137 118 64L 118 58L 106 58L 106 70L 112 70Z"></path></g></g></g><g id="g-root-cp_3-1_cell-3-1_mah7ouuv0gst-fill" data-item-order="-412904" transform="translate(236, 290)"><g id="cp_3-1_cell-3-1_mah7ouuv0gst-fill" stroke="none" fill="#ffeceb"><g><path d="M 10 16C 10 12.6863 12.6863 10 16 10L 22 10L 22 22L 10 22L 10 16ZM 22 10L 22 22L 106 22L 106 10L 22 10ZM 118 16C 118 12.6863 115.3137 10 112 10L 106 10L 106 22L 118 22L 118 16ZM 118 22L 10 22L 10 46L 118 46L 118 22ZM 10 52C 10 55.3137 12.6863 58 16 58L 22 58L 22 46L 10 46L 10 52ZM 106 58L 106 46L 22 46L 22 58L 106 58ZM 112 58C 115.3137 58 118 55.3137 118 52L 118 46L 106 46L 106 58L 112 58Z"></path></g></g></g><g id="g-root-cp_4-1_cell-4-1_hva6niuv0efa-fill" data-item-order="-412886" transform="translate(236, 350)"><g id="cp_4-1_cell-4-1_hva6niuv0efa-fill" stroke="none" fill="#ffebf7"><g><path d="M 10 16C 10 12.6863 12.6863 10 16 10L 22 10L 22 22L 10 22L 10 16ZM 22 10L 22 22L 106 22L 106 10L 22 10ZM 118 16C 118 12.6863 115.3137 10 112 10L 106 10L 106 22L 118 22L 118 16ZM 118 22L 10 22L 10 46L 118 46L 118 22ZM 10 52C 10 55.3137 12.6863 58 16 58L 22 58L 22 46L 10 46L 10 52ZM 106 58L 106 46L 22 46L 22 58L 106 58ZM 112 58C 115.3137 58 118 55.3137 118 52L 118 46L 106 46L 106 58L 112 58Z"></path></g></g></g><g id="g-root-cp_5-1_cell-5-1_hva6niuv0efb-fill" data-item-order="-412868" transform="translate(236, 410)"><g id="cp_5-1_cell-5-1_hva6niuv0efb-fill" stroke="none" fill="#faf0ff"><g><path d="M 10 16C 10 12.6863 12.6863 10 16 10L 22 10L 22 22L 10 22L 10 16ZM 22 10L 22 22L 106 22L 106 10L 22 10ZM 118 16C 118 12.6863 115.3137 10 112 10L 106 10L 106 22L 118 22L 118 16ZM 118 22L 10 22L 10 58L 118 58L 118 22ZM 10 64C 10 67.3137 12.6863 70 16 70L 22 70L 22 58L 10 58L 10 64ZM 106 70L 106 58L 22 58L 22 70L 106 70ZM 112 70C 115.3137 70 118 67.3137 118 64L 118 58L 106 58L 106 70L 112 70Z"></path></g></g></g><g id="g-root-cp_6-1_cell-6-1_dfgoj2uv0f7k-fill" data-item-order="-412850" transform="translate(236, 482)"><g id="cp_6-1_cell-6-1_dfgoj2uv0f7k-fill" stroke="none" fill="#f3f0ff"><g><path d="M 10 16C 10 12.6863 12.6863 10 16 10L 22 10L 22 22L 10 22L 10 16ZM 22 10L 22 22L 106 22L 106 10L 22 10ZM 118 16C 118 12.6863 115.3137 10 112 10L 106 10L 106 22L 118 22L 118 16ZM 118 22L 10 22L 10 46L 118 46L 118 22ZM 10 52C 10 55.3137 12.6863 58 16 58L 22 58L 22 46L 10 46L 10 52ZM 106 58L 106 46L 22 46L 22 58L 106 58ZM 112 58C 115.3137 58 118 55.3137 118 52L 118 46L 106 46L 106 58L 112 58Z"></path></g></g></g><g id="g-root-cp_7-1_cell-7-1_dfgoj2uv0f7l-fill" data-item-order="-412832" transform="translate(236, 542)"><g id="cp_7-1_cell-7-1_dfgoj2uv0f7l-fill" stroke="none" fill="#edf4ff"><g><path d="M 10 16C 10 12.6863 12.6863 10 16 10L 22 10L 22 22L 10 22L 10 16ZM 22 10L 22 22L 106 22L 106 10L 22 10ZM 118 16C 118 12.6863 115.3137 10 112 10L 106 10L 106 22L 118 22L 118 16ZM 118 22L 10 22L 10 58L 118 58L 118 22ZM 10 64C 10 67.3137 12.6863 70 16 70L 22 70L 22 58L 10 58L 10 64ZM 106 70L 106 58L 22 58L 22 70L 106 70ZM 112 70C 115.3137 70 118 67.3137 118 64L 118 58L 106 58L 106 70L 112 70Z"></path></g></g></g><g id="g-root-cp_0-2_cell-0-2_4jtoa6uv0g0a-fill" data-item-order="-412812" transform="translate(356, 98)"><g id="cp_0-2_cell-0-2_4jtoa6uv0g0a-fill" stroke="none" fill="#f5f5f5"><g><path d="M 10 16C 10 12.6863 12.6863 10 16 10L 22 10L 22 22L 10 22L 10 16ZM 22 10L 22 22L 166 22L 166 10L 22 10ZM 178 16C 178 12.6863 175.3137 10 172 10L 166 10L 166 22L 178 22L 178 16ZM 178 22L 10 22L 10 46L 178 46L 178 22ZM 10 52C 10 55.3137 12.6863 58 16 58L 22 58L 22 46L 10 46L 10 52ZM 166 58L 166 46L 22 46L 22 58L 166 58ZM 172 58C 175.3137 58 178 55.3137 178 52L 178 46L 166 46L 166 58L 172 58Z"></path></g></g></g><g id="g-root-cp_1-2_cell-1-2_4jtoa6uv0g0c-fill" data-item-order="-412776" transform="translate(356, 158)"><g id="cp_1-2_cell-1-2_4jtoa6uv0g0c-fill" stroke="none" fill="#fffbda"><g><path d="M 10 16C 10 12.6863 12.6863 10 16 10L 22 10L 22 22L 10 22L 10 16ZM 22 10L 22 22L 166 22L 166 10L 22 10ZM 178 16C 178 12.6863 175.3137 10 172 10L 166 10L 166 22L 178 22L 178 16ZM 178 22L 10 22L 10 46L 178 46L 178 22ZM 10 52C 10 55.3137 12.6863 58 16 58L 22 58L 22 46L 10 46L 10 52ZM 166 58L 166 46L 22 46L 22 58L 166 58ZM 172 58C 175.3137 58 178 55.3137 178 52L 178 46L 166 46L 166 58L 172 58Z"></path></g></g></g><g id="g-root-cp_2-2_cell-2-2_4065quv0gsl-fill" data-item-order="-412758" transform="translate(356, 218)"><g id="cp_2-2_cell-2-2_4065quv0gsl-fill" stroke="none" fill="#fff2e5"><g><path d="M 10 16C 10 12.6863 12.6863 10 16 10L 22 10L 22 22L 10 22L 10 16ZM 22 10L 22 22L 166 22L 166 10L 22 10ZM 178 16C 178 12.6863 175.3137 10 172 10L 166 10L 166 22L 178 22L 178 16ZM 178 22L 10 22L 10 58L 178 58L 178 22ZM 10 64C 10 67.3137 12.6863 70 16 70L 22 70L 22 58L 10 58L 10 64ZM 166 70L 166 58L 22 58L 22 70L 166 70ZM 172 70C 175.3137 70 178 67.3137 178 64L 178 58L 166 58L 166 70L 172 70Z"></path></g></g></g><g id="g-root-cp_3-2_cell-3-2_4065quv0gsm-fill" data-item-order="-412740" transform="translate(356, 290)"><g id="cp_3-2_cell-3-2_4065quv0gsm-fill" stroke="none" fill="#ffeceb"><g><path d="M 10 16C 10 12.6863 12.6863 10 16 10L 22 10L 22 22L 10 22L 10 16ZM 22 10L 22 22L 166 22L 166 10L 22 10ZM 178 16C 178 12.6863 175.3137 10 172 10L 166 10L 166 22L 178 22L 178 16ZM 178 22L 10 22L 10 46L 178 46L 178 22ZM 10 52C 10 55.3137 12.6863 58 16 58L 22 58L 22 46L 10 46L 10 52ZM 166 58L 166 46L 22 46L 22 58L 166 58ZM 172 58C 175.3137 58 178 55.3137 178 52L 178 46L 166 46L 166 58L 172 58Z"></path></g></g></g><g id="g-root-cp_4-2_cell-4-2_1q9h7vyuv0he7-fill" data-item-order="-412722" transform="translate(356, 350)"><g id="cp_4-2_cell-4-2_1q9h7vyuv0he7-fill" stroke="none" fill="#ffebf7"><g><path d="M 10 16C 10 12.6863 12.6863 10 16 10L 22 10L 22 22L 10 22L 10 16ZM 22 10L 22 22L 166 22L 166 10L 22 10ZM 178 16C 178 12.6863 175.3137 10 172 10L 166 10L 166 22L 178 22L 178 16ZM 178 22L 10 22L 10 46L 178 46L 178 22ZM 10 52C 10 55.3137 12.6863 58 16 58L 22 58L 22 46L 10 46L 10 52ZM 166 58L 166 46L 22 46L 22 58L 166 58ZM 172 58C 175.3137 58 178 55.3137 178 52L 178 46L 166 46L 166 58L 172 58Z"></path></g></g></g><g id="g-root-cp_5-2_cell-5-2_1upaq0euv0hds-fill" data-item-order="-412704" transform="translate(356, 410)"><g id="cp_5-2_cell-5-2_1upaq0euv0hds-fill" stroke="none" fill="#faf0ff"><g><path d="M 10 16C 10 12.6863 12.6863 10 16 10L 22 10L 22 22L 10 22L 10 16ZM 22 10L 22 22L 166 22L 166 10L 22 10ZM 178 16C 178 12.6863 175.3137 10 172 10L 166 10L 166 22L 178 22L 178 16ZM 178 22L 10 22L 10 58L 178 58L 178 22ZM 10 64C 10 67.3137 12.6863 70 16 70L 22 70L 22 58L 10 58L 10 64ZM 166 70L 166 58L 22 58L 22 70L 166 70ZM 172 70C 175.3137 70 178 67.3137 178 64L 178 58L 166 58L 166 70L 172 70Z"></path></g></g></g><g id="g-root-cp_6-2_cell-6-2_1upaq0euv0hdt-fill" data-item-order="-412686" transform="translate(356, 482)"><g id="cp_6-2_cell-6-2_1upaq0euv0hdt-fill" stroke="none" fill="#f3f0ff"><g><path d="M 10 16C 10 12.6863 12.6863 10 16 10L 22 10L 22 22L 10 22L 10 16ZM 22 10L 22 22L 166 22L 166 10L 22 10ZM 178 16C 178 12.6863 175.3137 10 172 10L 166 10L 166 22L 178 22L 178 16ZM 178 22L 10 22L 10 46L 178 46L 178 22ZM 10 52C 10 55.3137 12.6863 58 16 58L 22 58L 22 46L 10 46L 10 52ZM 166 58L 166 46L 22 46L 22 58L 166 58ZM 172 58C 175.3137 58 178 55.3137 178 52L 178 46L 166 46L 166 58L 172 58Z"></path></g></g></g><g id="g-root-cp_7-2_cell-7-2_1lua6umuv0f0q-fill" data-item-order="-412668" transform="translate(356, 542)"><g id="cp_7-2_cell-7-2_1lua6umuv0f0q-fill" stroke="none" fill="#edf4ff"><g><path d="M 10 16C 10 12.6863 12.6863 10 16 10L 22 10L 22 22L 10 22L 10 16ZM 22 10L 22 22L 166 22L 166 10L 22 10ZM 178 16C 178 12.6863 175.3137 10 172 10L 166 10L 166 22L 178 22L 178 16ZM 178 22L 10 22L 10 58L 178 58L 178 22ZM 10 64C 10 67.3137 12.6863 70 16 70L 22 70L 22 58L 10 58L 10 64ZM 166 70L 166 58L 22 58L 22 70L 166 70ZM 172 70C 175.3137 70 178 67.3137 178 64L 178 58L 166 58L 166 70L 172 70Z"></path></g></g></g><g id="g-root-cp_0-3_cell-0-3_1lvj50uuv0h6r-fill" data-item-order="-412648" transform="translate(536, 98)"><g id="cp_0-3_cell-0-3_1lvj50uuv0h6r-fill" stroke="none" fill="#f5f5f5"><g><path d="M 10 16C 10 12.6863 12.6863 10 16 10L 22 10L 22 22L 10 22L 10 16ZM 22 10L 22 22L 166 22L 166 10L 22 10ZM 178 16C 178 12.6863 175.3137 10 172 10L 166 10L 166 22L 178 22L 178 16ZM 178 22L 10 22L 10 46L 178 46L 178 22ZM 10 52C 10 55.3137 12.6863 58 16 58L 22 58L 22 46L 10 46L 10 52ZM 166 58L 166 46L 22 46L 22 58L 166 58ZM 172 58C 175.3137 58 178 55.3137 178 52L 178 46L 166 46L 166 58L 172 58Z"></path></g></g></g><g id="g-root-cp_1-3_cell-1-3_1d0ilv2uv0etp-fill" data-item-order="-412610" transform="translate(536, 158)"><g id="cp_1-3_cell-1-3_1d0ilv2uv0etp-fill" stroke="none" fill="#fffbda"><g><path d="M 10 16C 10 12.6863 12.6863 10 16 10L 22 10L 22 22L 10 22L 10 16ZM 22 10L 22 22L 166 22L 166 10L 22 10ZM 178 16C 178 12.6863 175.3137 10 172 10L 166 10L 166 22L 178 22L 178 16ZM 178 22L 10 22L 10 46L 178 46L 178 22ZM 10 52C 10 55.3137 12.6863 58 16 58L 22 58L 22 46L 10 46L 10 52ZM 166 58L 166 46L 22 46L 22 58L 166 58ZM 172 58C 175.3137 58 178 55.3137 178 52L 178 46L 166 46L 166 58L 172 58Z"></path></g></g></g><g id="g-root-cp_2-3_cell-2-3_1d0ilv2uv0etq-fill" data-item-order="-412592" transform="translate(536, 218)"><g id="cp_2-3_cell-2-3_1d0ilv2uv0etq-fill" stroke="none" fill="#fff2e5"><g><path d="M 10 16C 10 12.6863 12.6863 10 16 10L 22 10L 22 22L 10 22L 10 16ZM 22 10L 22 22L 166 22L 166 10L 22 10ZM 178 16C 178 12.6863 175.3137 10 172 10L 166 10L 166 22L 178 22L 178 16ZM 178 22L 10 22L 10 58L 178 58L 178 22ZM 10 64C 10 67.3137 12.6863 70 16 70L 22 70L 22 58L 10 58L 10 64ZM 166 70L 166 58L 22 58L 22 70L 166 70ZM 172 70C 175.3137 70 178 67.3137 178 64L 178 58L 166 58L 166 70L 172 70Z"></path></g></g></g><g id="g-root-cp_3-3_cell-3-3_18kp3qmuv0flz-fill" data-item-order="-412574" transform="translate(536, 290)"><g id="cp_3-3_cell-3-3_18kp3qmuv0flz-fill" stroke="none" fill="#ffeceb"><g><path d="M 10 16C 10 12.6863 12.6863 10 16 10L 22 10L 22 22L 10 22L 10 16ZM 22 10L 22 22L 166 22L 166 10L 22 10ZM 178 16C 178 12.6863 175.3137 10 172 10L 166 10L 166 22L 178 22L 178 16ZM 178 22L 10 22L 10 46L 178 46L 178 22ZM 10 52C 10 55.3137 12.6863 58 16 58L 22 58L 22 46L 10 46L 10 52ZM 166 58L 166 46L 22 46L 22 58L 166 58ZM 172 58C 175.3137 58 178 55.3137 178 52L 178 46L 166 46L 166 58L 172 58Z"></path></g></g></g><g id="g-root-cp_4-3_cell-4-3_18kp3qmuv0fm0-fill" data-item-order="-412556" transform="translate(536, 350)"><g id="cp_4-3_cell-4-3_18kp3qmuv0fm0-fill" stroke="none" fill="#ffebf7"><g><path d="M 10 16C 10 12.6863 12.6863 10 16 10L 22 10L 22 22L 10 22L 10 16ZM 22 10L 22 22L 166 22L 166 10L 22 10ZM 178 16C 178 12.6863 175.3137 10 172 10L 166 10L 166 22L 178 22L 178 16ZM 178 22L 10 22L 10 46L 178 46L 178 22ZM 10 52C 10 55.3137 12.6863 58 16 58L 22 58L 22 46L 10 46L 10 52ZM 166 58L 166 46L 22 46L 22 58L 166 58ZM 172 58C 175.3137 58 178 55.3137 178 52L 178 46L 166 46L 166 58L 172 58Z"></path></g></g></g><g id="g-root-cp_5-3_cell-5-3_144vlm6uv0ge9-fill" data-item-order="-412538" transform="translate(536, 410)"><g id="cp_5-3_cell-5-3_144vlm6uv0ge9-fill" stroke="none" fill="#faf0ff"><g><path d="M 10 16C 10 12.6863 12.6863 10 16 10L 22 10L 22 22L 10 22L 10 16ZM 22 10L 22 22L 166 22L 166 10L 22 10ZM 178 16C 178 12.6863 175.3137 10 172 10L 166 10L 166 22L 178 22L 178 16ZM 178 22L 10 22L 10 58L 178 58L 178 22ZM 10 64C 10 67.3137 12.6863 70 16 70L 22 70L 22 58L 10 58L 10 64ZM 166 70L 166 58L 22 58L 22 70L 166 70ZM 172 70C 175.3137 70 178 67.3137 178 64L 178 58L 166 58L 166 70L 172 70Z"></path></g></g></g><g id="g-root-cp_6-3_cell-6-3_v98ldauv0h6y-fill" data-item-order="-412520" transform="translate(536, 482)"><g id="cp_6-3_cell-6-3_v98ldauv0h6y-fill" stroke="none" fill="#f3f0ff"><g><path d="M 10 16C 10 12.6863 12.6863 10 16 10L 22 10L 22 22L 10 22L 10 16ZM 22 10L 22 22L 166 22L 166 10L 22 10ZM 178 16C 178 12.6863 175.3137 10 172 10L 166 10L 166 22L 178 22L 178 16ZM 178 22L 10 22L 10 46L 178 46L 178 22ZM 10 52C 10 55.3137 12.6863 58 16 58L 22 58L 22 46L 10 46L 10 52ZM 166 58L 166 46L 22 46L 22 58L 166 58ZM 172 58C 175.3137 58 178 55.3137 178 52L 178 46L 166 46L 166 58L 172 58Z"></path></g></g></g><g id="g-root-cp_7-3_cell-7-3_v98ldauv0h6z-fill" data-item-order="-412502" transform="translate(536, 542)"><g id="cp_7-3_cell-7-3_v98ldauv0h6z-fill" stroke="none" fill="#edf4ff"><g><path d="M 10 16C 10 12.6863 12.6863 10 16 10L 22 10L 22 22L 10 22L 10 16ZM 22 10L 22 22L 166 22L 166 10L 22 10ZM 178 16C 178 12.6863 175.3137 10 172 10L 166 10L 166 22L 178 22L 178 16ZM 178 22L 10 22L 10 58L 178 58L 178 22ZM 10 64C 10 67.3137 12.6863 70 16 70L 22 70L 22 58L 10 58L 10 64ZM 166 70L 166 58L 22 58L 22 70L 166 70ZM 172 70C 175.3137 70 178 67.3137 178 64L 178 58L 166 58L 166 70L 172 70Z"></path></g></g></g><g id="g-root-tx__4nklymuuuuj3-fill" data-item-order="0" transform="translate(278, 302)"><g id="tx__4nklymuuuuj3-fill" stroke="none" fill="#000000"><g><text style="font: 15px Roboto, sans-serif; white-space: pre;" font-size="15px" font-family="Roboto, sans-serif"><tspan x="14.5" y="30.5" dominant-baseline="ideographic">无</tspan></text></g></g></g><g id="g-root-tx_reactcha_147dl4euuusqv-fill" data-item-order="0" transform="translate(380, 302)"><g id="tx_reactcha_147dl4euuusqv-fill" stroke="none" fill="#000000"><g><text style="font: 15px Roboto, sans-serif; white-space: pre;" font-size="15px" font-family="Roboto, sans-serif"><tspan x="15.47" y="30.5" dominant-baseline="ideographic">React, Chakra UI</tspan></text></g></g></g><g id="g-root-tx_typescri_18mkm5quuuv4d-fill" data-item-order="0" transform="translate(398, 170)"><g id="tx_typescri_18mkm5quuuv4d-fill" stroke="none" fill="#000000"><g><text style="font: 15px Roboto, sans-serif; white-space: pre;" font-size="15px" font-family="Roboto, sans-serif"><tspan x="16.64" y="30.5" dominant-baseline="ideographic">TypeScript</tspan></text></g></g></g><g id="g-root-tx_swaggeru_9mj3iuuuubz-fill" data-item-order="0" transform="translate(578, 302)"><g id="tx_swaggeru_9mj3iuuuubz-fill" stroke="none" fill="#000000"><g><text style="font: 15px Roboto, sans-serif; white-space: pre;" font-size="15px" font-family="Roboto, sans-serif"><tspan x="14.13" y="30.5" dominant-baseline="ideographic">Swagger UI</tspan></text></g></g></g><g id="g-root-ic_7_1cy0pimuv4nws-fill" data-item-order="0" transform="translate(38, 356)"></g><g id="g-root-tx__18lbktquv7fv1-fill" data-item-order="0" transform="translate(80, 362)"><g id="tx__18lbktquv7fv1-fill" stroke="none" fill="#de58a9"><g><text style="font: bold 20px Roboto, sans-serif; white-space: pre;" font-weight="bold" font-size="20px" font-family="Roboto, sans-serif"><tspan x="12" y="33.5" dominant-baseline="ideographic">构建/打包工具</tspan></text></g></g></g><g id="g-root-tx_ui_1q9h7vyuv4mbv-fill" data-item-order="0" transform="translate(80, 302)"><g id="tx_ui_1q9h7vyuv4mbv-fill" stroke="none" fill="#e55753"><g><text style="font: bold 20px Roboto, sans-serif; white-space: pre;" font-weight="bold" font-size="20px" font-family="Roboto, sans-serif"><tspan x="12" y="33.5" dominant-baseline="ideographic">UI组件</tspan></text></g></g></g><g id="g-root-ic_scri_4my1pquv0h72-fill" data-item-order="0" transform="translate(38, 164)"></g><g id="g-root-tx__1hi7memuuuubo-fill" data-item-order="0" transform="translate(416, 110)"><g id="tx__1hi7memuuuubo-fill" stroke="none" fill="#969696"><g><text style="font: bold 20px Roboto, sans-serif; white-space: pre;" font-weight="bold" font-size="20px" font-family="Roboto, sans-serif"><tspan x="14" y="33.5" dominant-baseline="ideographic">前端</tspan></text></g></g></g><g id="g-root-tx_vite_zrk2zyuuutj4-fill" data-item-order="0" transform="translate(422, 362)"><g id="tx_vite_zrk2zyuuutj4-fill" stroke="none" fill="#000000"><g><text style="font: 15px Roboto, sans-serif; white-space: pre;" font-size="15px" font-family="Roboto, sans-serif"><tspan x="14.97" y="30.5" dominant-baseline="ideographic">Vite</tspan></text></g></g></g><g id="g-root-ic_stor_deu7fyuv4nb6-fill" data-item-order="0" transform="translate(38, 296)"></g><g id="g-root-tx_traefik_4pg17yuuuubk-fill" data-item-order="0" transform="translate(590, 362)"><g id="tx_traefik_4pg17yuuuubk-fill" stroke="none" fill="#000000"><g><text style="font: 15px Roboto, sans-serif; white-space: pre;" font-size="15px" font-family="Roboto, sans-serif"><tspan x="17.39" y="30.5" dominant-baseline="ideographic">Traefik</tspan></text></g></g></g><g id="g-root-ic_bust_145i2pauv7gna-fill" data-item-order="0" transform="translate(38, 422)"></g><g id="g-root-tx__hz14byuuusy4-fill" data-item-order="0" transform="translate(266, 110)"><g id="tx__hz14byuuusy4-fill" stroke="none" fill="#969696"><g><text style="font: bold 20px Roboto, sans-serif; white-space: pre;" font-weight="bold" font-size="20px" font-family="Roboto, sans-serif"><tspan x="14" y="33.5" dominant-baseline="ideographic">后端</tspan></text></g></g></g><g id="g-root-tx__qn6fjiuup6vj-fill" data-item-order="0" transform="translate(80, 428)"><g id="tx__qn6fjiuup6vj-fill" stroke="none" fill="#ba5de5"><g><text style="font: bold 20px Roboto, sans-serif; white-space: pre;" font-weight="bold" font-size="20px" font-family="Roboto, sans-serif"><tspan x="12" y="33.5" dominant-baseline="ideographic">测试</tspan></text></g></g></g><g id="g-root-tx_fastapi_dj7m7iuuutqd-fill" data-item-order="0" transform="translate(260, 170)"><g id="tx_fastapi_dj7m7iuuutqd-fill" stroke="none" fill="#000000"><g><text style="font: 15px Roboto, sans-serif; white-space: pre;" font-size="15px" font-family="Roboto, sans-serif"><tspan x="13.91" y="30.5" dominant-baseline="ideographic">FastAPI</tspan></text></g></g></g><g id="g-root-tx_pytest_1uto4ryuuusqp-fill" data-item-order="0" transform="translate(266, 428)"><g id="tx_pytest_1uto4ryuuusqp-fill" stroke="none" fill="#000000"><g><text style="font: 15px Roboto, sans-serif; white-space: pre;" font-size="15px" font-family="Roboto, sans-serif"><tspan x="12.91" y="30.5" dominant-baseline="ideographic">Pytest</tspan></text></g></g></g><g id="g-root-tx_jestreac_qvx2r2uuuubt-fill" data-item-order="0" transform="translate(368, 422)"><g id="tx_jestreac_qvx2r2uuuubt-fill" stroke="none" fill="#000000"><g><text style="font: 15px Roboto, sans-serif; white-space: pre;" font-size="15px" font-family="Roboto, sans-serif"><tspan x="17" y="27.5" dominant-baseline="ideographic">Jest, React Testing </tspan><tspan x="19.56" y="45.5" dominant-baseline="ideographic">Library, Playwright</tspan></text></g></g></g><g id="g-root-tx_dockerdo_959jceuuutja-fill" data-item-order="0" transform="translate(566, 230)"><g id="tx_dockerdo_959jceuuutja-fill" stroke="none" fill="#000000"><g><text style="font: 15px Roboto, sans-serif; white-space: pre;" font-size="15px" font-family="Roboto, sans-serif"><tspan x="12.51" y="27.5" dominant-baseline="ideographic">Docker, Docker </tspan><tspan x="30.06" y="45.5" dominant-baseline="ideographic">Compose</tspan></text></g></g></g><g id="g-root-tx_api_18mkm5quuuv4e-fill" data-item-order="0" transform="translate(374, 230)"><g id="tx_api_18mkm5quuuv4e-fill" stroke="none" fill="#000000"><g><text style="font: 15px Roboto, sans-serif; white-space: pre;" font-size="15px" font-family="Roboto, sans-serif"><tspan x="11.84" y="27.5" dominant-baseline="ideographic">自动生成的API客户</tspan><tspan x="68.5" y="45.5" dominant-baseline="ideographic">端</tspan></text></g></g></g><g id="g-root-tx_precommi_1uux2y6uuuux5-fill" data-item-order="0" transform="translate(560, 428)"><g id="tx_precommi_1uux2y6uuuux5-fill" stroke="none" fill="#000000"><g><text style="font: 15px Roboto, sans-serif; white-space: pre;" font-size="15px" font-family="Roboto, sans-serif"><tspan x="16.11" y="30.5" dominant-baseline="ideographic">Pre-commit钩子</tspan></text></g></g></g><g id="g-root-ic_mana_hrjfamuup8g0-fill" data-item-order="0" transform="translate(38, 488)"></g><g id="g-root-tx__dil1ymuv0ged-fill" data-item-order="0" transform="translate(38, 110)"><g id="tx__dil1ymuv0ged-fill" stroke="none" fill="#969696"><g><text style="font: bold 20px Roboto, sans-serif; white-space: pre;" font-weight="bold" font-size="20px" font-family="Roboto, sans-serif"><tspan x="12" y="33.5" dominant-baseline="ideographic">特征</tspan></text></g></g></g><g id="g-root-tx__3ds8euus1z5-fill" data-item-order="0" transform="translate(80, 494)"><g id="tx__3ds8euus1z5-fill" stroke="none" fill="#7f64ea"><g><text style="font: bold 20px Roboto, sans-serif; white-space: pre;" font-weight="bold" font-size="20px" font-family="Roboto, sans-serif"><tspan x="12" y="33.5" dominant-baseline="ideographic">依赖/包管理</tspan></text></g></g></g><g id="g-root-tx_sqlmodel_4nklymuuuuj2-fill" data-item-order="0" transform="translate(248, 230)"><g id="tx_sqlmodel_4nklymuuuuj2-fill" stroke="none" fill="#000000"><g><text style="font: 15px Roboto, sans-serif; white-space: pre;" font-size="15px" font-family="Roboto, sans-serif"><tspan x="15.96" y="27.5" dominant-baseline="ideographic">SQLModel, </tspan><tspan x="12.34" y="45.5" dominant-baseline="ideographic">PostgreSQL</tspan></text></g></g></g><g id="g-root-tx_poetry_1uto4ryuuusqq-fill" data-item-order="0" transform="translate(266, 494)"><g id="tx_poetry_1uto4ryuuusqq-fill" stroke="none" fill="#000000"><g><text style="font: 15px Roboto, sans-serif; white-space: pre;" font-size="15px" font-family="Roboto, sans-serif"><tspan x="12.45" y="30.5" dominant-baseline="ideographic">Poetry</tspan></text></g></g></g><g id="g-root-tx__qpo8q6uv4ow1-fill" data-item-order="0" transform="translate(80, 236)"><g id="tx__qpo8q6uv4ow1-fill" stroke="none" fill="#de8431"><g><text style="font: bold 20px Roboto, sans-serif; white-space: pre;" font-weight="bold" font-size="20px" font-family="Roboto, sans-serif"><tspan x="12" y="33.5" dominant-baseline="ideographic">数据库</tspan></text></g></g></g><g id="g-root-tx_pnpm_qvx2r2uuuubu-fill" data-item-order="0" transform="translate(416, 494)"><g id="tx_pnpm_qvx2r2uuuubu-fill" stroke="none" fill="#000000"><g><text style="font: 15px Roboto, sans-serif; white-space: pre;" font-size="15px" font-family="Roboto, sans-serif"><tspan x="14.86" y="30.5" dominant-baseline="ideographic">pnpm</tspan></text></g></g></g><g id="g-root-tx_devops_dl31guuuusr0-fill" data-item-order="0" transform="translate(548, 110)"><g id="tx_devops_dl31guuuusr0-fill" stroke="none" fill="#969696"><g><text style="font: bold 20px Roboto, sans-serif; white-space: pre;" font-weight="bold" font-size="20px" font-family="Roboto, sans-serif"><tspan x="17.44" y="33.5" dominant-baseline="ideographic">DevOps和工具</tspan></text></g></g></g><g id="g-root-tx_eslintpr_1uux2y6uuuux6-fill" data-item-order="0" transform="translate(566, 494)"><g id="tx_eslintpr_1uux2y6uuuux6-fill" stroke="none" fill="#000000"><g><text style="font: 15px Roboto, sans-serif; white-space: pre;" font-size="15px" font-family="Roboto, sans-serif"><tspan x="15.06" y="30.5" dominant-baseline="ideographic">ESLint, Prettier</tspan></text></g></g></g><g id="g-root-ic_migr_1ltnsxauus076-fill" data-item-order="0" transform="translate(38, 554)"></g><g id="g-root-tx_devops_qu1kbyuv0etg-fill" data-item-order="0" transform="translate(219, 38)"><g id="tx_devops_qu1kbyuv0etg-fill" stroke="none" fill="#484848"><g><text style="font: 20px Roboto, sans-serif; white-space: pre;" font-size="20px" font-family="Roboto, sans-serif"><tspan x="15.7" y="33.5" dominant-baseline="ideographic">后端、前端和DevOps工具的比较</tspan></text></g></g></g><g id="g-root-tx__quo4kuuuus5f-fill" data-item-order="0" transform="translate(80, 560)"><g id="tx__quo4kuuuus5f-fill" stroke="none" fill="#4e88e7"><g><text style="font: bold 20px Roboto, sans-serif; white-space: pre;" font-weight="bold" font-size="20px" font-family="Roboto, sans-serif"><tspan x="12" y="33.5" dominant-baseline="ideographic">数据库迁移</tspan></text></g></g></g><g id="g-root-tx__94mz3iuv0ff3-fill" data-item-order="0" transform="translate(80, 170)"><g id="tx__94mz3iuv0ff3-fill" stroke="none" fill="#e0cb15"><g><text style="font: bold 20px Roboto, sans-serif; white-space: pre;" font-weight="bold" font-size="20px" font-family="Roboto, sans-serif"><tspan x="12" y="33.5" dominant-baseline="ideographic">语言/框架</tspan></text></g></g></g><g id="g-root-tx_alembic_1ly14j2uuutjf-fill" data-item-order="0" transform="translate(260, 560)"><g id="tx_alembic_1ly14j2uuutjf-fill" stroke="none" fill="#000000"><g><text style="font: 15px Roboto, sans-serif; white-space: pre;" font-size="15px" font-family="Roboto, sans-serif"><tspan x="12.77" y="30.5" dominant-baseline="ideographic">Alembic</tspan></text></g></g></g><g id="g-root-ic_2_8zyumuv0gzk-fill" data-item-order="0" transform="translate(38, 230)"></g><g id="g-root-tx__mg3kmmuuuv43-fill" data-item-order="0" transform="translate(428, 560)"><g id="tx__mg3kmmuuuv43-fill" stroke="none" fill="#000000"><g><text style="font: 15px Roboto, sans-serif; white-space: pre;" font-size="15px" font-family="Roboto, sans-serif"><tspan x="14.5" y="30.5" dominant-baseline="ideographic">无</tspan></text></g></g></g><g id="g-root-tx_cursor_1q5qgj2uuw743-fill" data-item-order="0" transform="translate(548, 554)"><g id="tx_cursor_1q5qgj2uuw743-fill" stroke="none" fill="#000000"><g><text style="font: 15px Roboto, sans-serif; white-space: pre;" font-size="15px" font-family="Roboto, sans-serif"><tspan x="14.75" y="27.5" dominant-baseline="ideographic">针对Cursor优化的结</tspan><tspan x="74.5" y="45.5" dominant-baseline="ideographic">构</tspan></text></g></g></g><g id="g-root-tx_githubac_959jceuuutj9-fill" data-item-order="0" transform="translate(566, 170)"><g id="tx_githubac_959jceuuutj9-fill" stroke="none" fill="#000000"><g><text style="font: 15px Roboto, sans-serif; white-space: pre;" font-size="15px" font-family="Roboto, sans-serif"><tspan x="13.67" y="30.5" dominant-baseline="ideographic">GitHub Actions</tspan></text></g></g></g><g id="g-root-tx__8dkxauuus5k-fill" data-item-order="0" transform="translate(278, 362)"><g id="tx__8dkxauuus5k-fill" stroke="none" fill="#000000"><g><text style="font: 15px Roboto, sans-serif; white-space: pre;" font-size="15px" font-family="Roboto, sans-serif"><tspan x="14.5" y="30.5" dominant-baseline="ideographic">无</tspan></text></g></g></g><g id="g-root-cp_0-0_cell-0-0_1uo1ru6uv0efc-stroke" data-item-order="-413208" transform="translate(26, 98)"><g id="cp_0-0_cell-0-0_1uo1ru6uv0efc-stroke" fill="none" stroke-linecap="round" stroke-linejoin="round" stroke-miterlimit="4" stroke="#969696" stroke-width="2"><g><path d="M 10 22L 10 16C 10 12.6863 12.6863 10 16 10L 22 10M 208 22L 208 46M 10 46L 10 22M 22 10L 196 10M 10 46L 10 52C 10 55.3137 12.6863 58 16 58L 22 58M 208 22L 208 16C 208 12.6863 205.3137 10 202 10L 196 10M 196 58L 22 58M 208 46L 208 52C 208 55.3137 205.3137 58 202 58L 196 58"></path></g></g></g><g id="g-root-cp_1-0_cell-1-0_1q889pquv0f7m-stroke" data-item-order="-413176" transform="translate(26, 158)"></g><g id="g-root-cp_2-0_cell-2-0_1hcl9guuv0g0b-stroke" data-item-order="-413148" transform="translate(26, 218)"></g><g id="g-root-cp_3-0_cell-3-0_1hcl9guuv0g0c-stroke" data-item-order="-413120" transform="translate(26, 290)"></g><g id="g-root-cp_4-0_cell-4-0_1cwrrceuv0gsl-stroke" data-item-order="-413092" transform="translate(26, 350)"></g><g id="g-root-cp_5-0_cell-5-0_141r86muv0efi-stroke" data-item-order="-413064" transform="translate(26, 410)"></g><g id="g-root-cp_6-0_cell-6-0_zlxq26uv0f7r-stroke" data-item-order="-413036" transform="translate(26, 482)"></g><g id="g-root-cp_7-0_cell-7-0_zlxq26uv0f7s-stroke" data-item-order="-413008" transform="translate(26, 542)"></g><g id="g-root-cp_0-1_cell-0-1_v647xquv0g01-stroke" data-item-order="-412976" transform="translate(236, 98)"><g id="cp_0-1_cell-0-1_v647xquv0g01-stroke" fill="none" stroke-linecap="round" stroke-linejoin="round" stroke-miterlimit="4" stroke="#969696" stroke-width="2"><g><path d="M 10 22L 10 16C 10 12.6863 12.6863 10 16 10L 22 10M 118 22L 118 46M 10 46L 10 22M 22 10L 106 10M 10 46L 10 52C 10 55.3137 12.6863 58 16 58L 22 58M 118 22L 118 16C 118 12.6863 115.3137 10 112 10L 106 10M 106 58L 22 58M 118 46L 118 52C 118 55.3137 115.3137 58 112 58L 106 58"></path></g></g></g><g id="g-root-cp_1-1_cell-1-1_mah7ouuv0gsr-stroke" data-item-order="-412940" transform="translate(236, 158)"></g><g id="g-root-cp_2-1_cell-2-1_mah7ouuv0gss-stroke" data-item-order="-412922" transform="translate(236, 218)"></g><g id="g-root-cp_3-1_cell-3-1_mah7ouuv0gst-stroke" data-item-order="-412904" transform="translate(236, 290)"></g><g id="g-root-cp_4-1_cell-4-1_hva6niuv0efa-stroke" data-item-order="-412886" transform="translate(236, 350)"></g><g id="g-root-cp_5-1_cell-5-1_hva6niuv0efb-stroke" data-item-order="-412868" transform="translate(236, 410)"></g><g id="g-root-cp_6-1_cell-6-1_dfgoj2uv0f7k-stroke" data-item-order="-412850" transform="translate(236, 482)"></g><g id="g-root-cp_7-1_cell-7-1_dfgoj2uv0f7l-stroke" data-item-order="-412832" transform="translate(236, 542)"></g><g id="g-root-cp_0-2_cell-0-2_4jtoa6uv0g0a-stroke" data-item-order="-412812" transform="translate(356, 98)"><g id="cp_0-2_cell-0-2_4jtoa6uv0g0a-stroke" fill="none" stroke-linecap="round" stroke-linejoin="round" stroke-miterlimit="4" stroke="#969696" stroke-width="2"><g><path d="M 10 22L 10 16C 10 12.6863 12.6863 10 16 10L 22 10M 178 22L 178 46M 10 46L 10 22M 22 10L 166 10M 10 46L 10 52C 10 55.3137 12.6863 58 16 58L 22 58M 178 22L 178 16C 178 12.6863 175.3137 10 172 10L 166 10M 166 58L 22 58M 178 46L 178 52C 178 55.3137 175.3137 58 172 58L 166 58"></path></g></g></g><g id="g-root-cp_1-2_cell-1-2_4jtoa6uv0g0c-stroke" data-item-order="-412776" transform="translate(356, 158)"></g><g id="g-root-cp_2-2_cell-2-2_4065quv0gsl-stroke" data-item-order="-412758" transform="translate(356, 218)"></g><g id="g-root-cp_3-2_cell-3-2_4065quv0gsm-stroke" data-item-order="-412740" transform="translate(356, 290)"></g><g id="g-root-cp_4-2_cell-4-2_1q9h7vyuv0he7-stroke" data-item-order="-412722" transform="translate(356, 350)"></g><g id="g-root-cp_5-2_cell-5-2_1upaq0euv0hds-stroke" data-item-order="-412704" transform="translate(356, 410)"></g><g id="g-root-cp_6-2_cell-6-2_1upaq0euv0hdt-stroke" data-item-order="-412686" transform="translate(356, 482)"></g><g id="g-root-cp_7-2_cell-7-2_1lua6umuv0f0q-stroke" data-item-order="-412668" transform="translate(356, 542)"></g><g id="g-root-cp_0-3_cell-0-3_1lvj50uuv0h6r-stroke" data-item-order="-412648" transform="translate(536, 98)"><g id="cp_0-3_cell-0-3_1lvj50uuv0h6r-stroke" fill="none" stroke-linecap="round" stroke-linejoin="round" stroke-miterlimit="4" stroke="#969696" stroke-width="2"><g><path d="M 10 22L 10 16C 10 12.6863 12.6863 10 16 10L 22 10M 178 22L 178 46M 10 46L 10 22M 22 10L 166 10M 10 46L 10 52C 10 55.3137 12.6863 58 16 58L 22 58M 178 22L 178 16C 178 12.6863 175.3137 10 172 10L 166 10M 166 58L 22 58M 178 46L 178 52C 178 55.3137 175.3137 58 172 58L 166 58"></path></g></g></g><g id="g-root-cp_1-3_cell-1-3_1d0ilv2uv0etp-stroke" data-item-order="-412610" transform="translate(536, 158)"></g><g id="g-root-cp_2-3_cell-2-3_1d0ilv2uv0etq-stroke" data-item-order="-412592" transform="translate(536, 218)"></g><g id="g-root-cp_3-3_cell-3-3_18kp3qmuv0flz-stroke" data-item-order="-412574" transform="translate(536, 290)"></g><g id="g-root-cp_4-3_cell-4-3_18kp3qmuv0fm0-stroke" data-item-order="-412556" transform="translate(536, 350)"></g><g id="g-root-cp_5-3_cell-5-3_144vlm6uv0ge9-stroke" data-item-order="-412538" transform="translate(536, 410)"></g><g id="g-root-cp_6-3_cell-6-3_v98ldauv0h6y-stroke" data-item-order="-412520" transform="translate(536, 482)"></g><g id="g-root-cp_7-3_cell-7-3_v98ldauv0h6z-stroke" data-item-order="-412502" transform="translate(536, 542)"></g><g id="g-root-tx__4nklymuuuuj3-stroke" data-item-order="0" transform="translate(278, 302)"></g><g id="g-root-tx_reactcha_147dl4euuusqv-stroke" data-item-order="0" transform="translate(380, 302)"></g><g id="g-root-tx_typescri_18mkm5quuuv4d-stroke" data-item-order="0" transform="translate(398, 170)"></g><g id="g-root-tx_swaggeru_9mj3iuuuubz-stroke" data-item-order="0" transform="translate(578, 302)"></g><g id="g-root-ic_7_1cy0pimuv4nws-stroke" data-item-order="0" transform="translate(38, 356)"><g id="ic_7_1cy0pimuv4nws-stroke" fill="none" stroke-linecap="round" stroke-linejoin="round" stroke-miterlimit="4" stroke="#de58a9" stroke-width="2"><g><path d="M 30.625 22L 17.125 22C 16.674999 22 16.375 21.700001 16.375 21.25L 16.375 16.75C 16.375 16.299999 16.674999 16 17.125 16L 30.625 16C 31.075001 16 31.375 16.299999 31.375 16.75L 31.375 21.25C 31.375 21.549999 31.075001 22 30.625 22ZM 30.625 36.25L 17.125 36.25C 16.674999 36.25 16.375 35.949997 16.375 35.5L 16.375 31C 16.375 30.549999 16.674999 30.25 17.125 30.25L 30.625 30.25C 31.075001 30.25 31.375 30.549999 31.375 31L 31.375 35.5C 31.375 35.800003 31.075001 36.25 30.625 36.25ZM 39.775002 37.224998L 36.324997 33.775002C 36.025002 33.474998 36.025002 33.025002 36.324997 32.724998L 39.775002 29.275002C 40.074997 28.974998 40.525002 28.974998 40.824997 29.275002L 44.275002 32.724998C 44.574997 33.025002 44.574997 33.474998 44.275002 33.775002L 40.824997 37.224998C 40.675003 37.525002 40.074997 37.525002 39.775002 37.224998ZM 11.125 12.25L 11.125 32.5C 11.125 32.950001 11.425 33.25 11.875 33.25L 15.625 33.25M 11.125 19L 16.375 19M 31.375 19L 39.625 19C 40.074997 19 40.375 19.299999 40.375 19.75L 40.375 29.007999M 31.375 33.25L 36.099998 33.25M 40.375 37.399002L 40.375 43C 40.375 43.449997 40.675003 43.75 41.125 43.75L 44.875 43.75"></path></g></g></g><g id="g-root-tx__18lbktquv7fv1-stroke" data-item-order="0" transform="translate(80, 362)"></g><g id="g-root-tx_ui_1q9h7vyuv4mbv-stroke" data-item-order="0" transform="translate(80, 302)"></g><g id="g-root-ic_scri_4my1pquv0h72-stroke" data-item-order="0" transform="translate(38, 164)"><g id="ic_scri_4my1pquv0h72-stroke" fill="none" stroke-linecap="round" stroke-linejoin="round" stroke-miterlimit="4" stroke="#e0cb15" stroke-width="2"><g><path d="M 12.25 10.75L 43.75 10.75C 43.75 10.75 45.25 10.75 45.25 12.25L 45.25 43.75C 45.25 43.75 45.25 45.25 43.75 45.25L 12.25 45.25C 12.25 45.25 10.75 45.25 10.75 43.75L 10.75 12.25C 10.75 12.25 10.75 10.75 12.25 10.75M 33.25 37C 33.25 39.071068 34.928932 40.75 37 40.75C 39.071068 40.75 40.75 39.071068 40.75 37C 40.75 34.93 39.25 34 37 33.25C 34.75 32.5 33.25 31.57 33.25 29.5C 33.25 27.428932 34.928932 25.75 37 25.75C 39.071068 25.75 40.75 27.428932 40.75 29.5M 19.75 36.25C 19.75 38.735283 21.764719 40.75 24.25 40.75C 26.735283 40.75 28.75 38.735283 28.75 36.25L 28.75 25.75"></path></g></g></g><g id="g-root-tx__1hi7memuuuubo-stroke" data-item-order="0" transform="translate(416, 110)"></g><g id="g-root-tx_vite_zrk2zyuuutj4-stroke" data-item-order="0" transform="translate(422, 362)"></g><g id="g-root-ic_stor_deu7fyuv4nb6-stroke" data-item-order="0" transform="translate(38, 296)"><g id="ic_stor_deu7fyuv4nb6-stroke" fill="none" stroke-linecap="round" stroke-linejoin="round" stroke-miterlimit="4" stroke="#e55753" stroke-width="2"><g><path d="M 10.75 10.75L 45.25 10.75L 45.25 45.25L 10.75 45.25ZM 18.25 10.75L 18.25 45.25M 45.25 18.25L 10.75 18.25"></path></g></g></g><g id="g-root-tx_traefik_4pg17yuuuubk-stroke" data-item-order="0" transform="translate(590, 362)"></g><g id="g-root-ic_bust_145i2pauv7gna-stroke" data-item-order="0" transform="translate(38, 422)"><g id="ic_bust_145i2pauv7gna-stroke" fill="none" stroke-linecap="round" stroke-linejoin="round" stroke-miterlimit="4" stroke="#ba5de5" stroke-width="2"><g><path d="M 39.644501 39.805L 45.133003 45.293499M 27.472 34.814499C 27.472 38.740414 30.654583 41.923 34.580498 41.923C 38.506416 41.923 41.688999 38.740414 41.688999 34.814499C 41.688999 30.888584 38.506416 27.705999 34.580498 27.705999C 30.654583 27.705999 27.472 30.888584 27.472 34.814499M 11.188 43.1455L 11.9905 43.1455M 15.34 43.1455L 16.1425 43.1455M 20.959 43.1455L 21.763 43.1455M 33.002499 37.525002L 33.805 36.7225M 34.607502 32.7085L 34.607502 31.504002M 26.625999 24.8785L 27.428501 25.681M 25.777 43.1455L 26.5795 43.1455M 18.495771 19.545351L 19.730381 18.310741C 20.466223 17.579575 21.65489 17.581472 22.388397 18.314985L 23.58482 19.51141C 24.659258 20.585842 24.661156 22.327259 23.589062 23.404032L 23.589062 23.404032C 22.512974 24.480122 20.768288 24.480122 19.692198 23.404032L 18.495771 22.207607C 17.760611 21.472445 17.760611 20.280512 18.495771 19.545351ZM 14.895668 15.601102L 15.785562 14.711207C 15.785562 14.711207 17.289577 13.207192 18.793596 14.711207L 19.558331 15.475944C 19.558331 15.475944 21.062347 16.979959 19.558331 18.483976L 18.668436 19.373871C 18.668436 19.373871 17.164419 20.877886 15.660404 19.373871L 14.895668 18.609135C 14.895668 18.609135 13.391651 17.105118 14.895668 15.601102M 10.873 14.461C 10.723 15.601 13.03 17.7985 14.422 16.1665M 14.6215 10.7125C 15.76 10.5625 17.9575 12.871 16.3255 14.2615M 19.494999 15.412L 20.870501 12.5695M 22.393 18.309999L 24.148001 15.5395M 15.5965 19.309L 12.7555 20.686001M 18.496 22.2085L 15.724 23.963501"></path></g></g></g><g id="g-root-tx__hz14byuuusy4-stroke" data-item-order="0" transform="translate(266, 110)"></g><g id="g-root-tx__qn6fjiuup6vj-stroke" data-item-order="0" transform="translate(80, 428)"></g><g id="g-root-tx_fastapi_dj7m7iuuutqd-stroke" data-item-order="0" transform="translate(260, 170)"></g><g id="g-root-tx_pytest_1uto4ryuuusqp-stroke" data-item-order="0" transform="translate(266, 428)"></g><g id="g-root-tx_jestreac_qvx2r2uuuubt-stroke" data-item-order="0" transform="translate(368, 422)"></g><g id="g-root-tx_dockerdo_959jceuuutja-stroke" data-item-order="0" transform="translate(566, 230)"></g><g id="g-root-tx_api_18mkm5quuuv4e-stroke" data-item-order="0" transform="translate(374, 230)"></g><g id="g-root-tx_precommi_1uux2y6uuuux5-stroke" data-item-order="0" transform="translate(560, 428)"></g><g id="g-root-ic_mana_hrjfamuup8g0-stroke" data-item-order="0" transform="translate(38, 488)"><g id="ic_mana_hrjfamuup8g0-stroke" fill="none" stroke-linecap="round" stroke-linejoin="round" stroke-miterlimit="4" stroke="#7f64ea" stroke-width="2"><g><path d="M 25 42.25C 25 43.906857 26.343145 45.25 28 45.25C 29.656855 45.25 31 43.906857 31 42.25C 31 40.593143 29.656855 39.25 28 39.25C 26.343145 39.25 25 40.593143 25 42.25M 28 45.25C 26.790533 45.244923 25.702404 44.514061 25.24025 43.396362C 24.778091 42.278667 25.032309 40.99276 25.885 40.135002L 40.135002 25.885C 41.325279 24.865669 43.099583 24.934204 44.207687 26.042311C 45.315796 27.150417 45.384331 28.924721 44.364998 30.115L 30.115 44.364998C 29.554974 44.928383 28.794365 45.246651 28 45.25ZM 25 13.75C 25 15.406855 26.343145 16.75 28 16.75C 29.656855 16.75 31 15.406855 31 13.75C 31 12.093145 29.656855 10.75 28 10.75C 26.343145 10.75 25 12.093145 25 13.75M 25 28C 25 29.656855 26.343145 31 28 31C 29.656855 31 31 29.656855 31 28C 31 26.343145 29.656855 25 28 25C 26.343145 25 25 26.343145 25 28M 28 10.75C 29.209467 10.755078 30.297596 11.485939 30.75975 12.603637C 31.221909 13.721334 30.967691 15.00724 30.115 15.865L 15.865 30.115C 14.694887 31.27817 12.805112 31.27817 11.635 30.115C 10.471829 28.944887 10.471829 27.055113 11.635 25.885L 25.885 11.635C 26.445026 11.071618 27.205635 10.753349 28 10.75ZM 35.125 17.875C 36.334465 17.880077 37.422596 18.610939 37.88475 19.728636C 38.346909 20.846334 38.092693 22.13224 37.239998 22.99L 22.99 37.239998C 21.799719 38.259331 20.025417 38.190796 18.917311 37.082687C 17.809202 35.974583 17.740669 34.200279 18.76 33.010002L 33.010002 18.76C 33.570026 18.196619 34.330635 17.878349 35.125 17.875Z"></path></g></g></g><g id="g-root-tx__dil1ymuv0ged-stroke" data-item-order="0" transform="translate(38, 110)"></g><g id="g-root-tx__3ds8euus1z5-stroke" data-item-order="0" transform="translate(80, 494)"></g><g id="g-root-tx_sqlmodel_4nklymuuuuj2-stroke" data-item-order="0" transform="translate(248, 230)"></g><g id="g-root-tx_poetry_1uto4ryuuusqq-stroke" data-item-order="0" transform="translate(266, 494)"></g><g id="g-root-tx__qpo8q6uv4ow1-stroke" data-item-order="0" transform="translate(80, 236)"></g><g id="g-root-tx_pnpm_qvx2r2uuuubu-stroke" data-item-order="0" transform="translate(416, 494)"></g><g id="g-root-tx_devops_dl31guuuusr0-stroke" data-item-order="0" transform="translate(548, 110)"></g><g id="g-root-tx_eslintpr_1uux2y6uuuux6-stroke" data-item-order="0" transform="translate(566, 494)"></g><g id="g-root-ic_migr_1ltnsxauus076-stroke" data-item-order="0" transform="translate(38, 554)"><g id="ic_migr_1ltnsxauus076-stroke" fill="none" stroke-linecap="round" stroke-linejoin="round" stroke-miterlimit="4" stroke="#4e88e7" stroke-width="2"><g><path d="M 28 21.325001C 34.4617 21.325001 39.699997 19.041655 39.699997 16.225C 39.699997 13.408345 34.4617 11.125 28 11.125C 21.538284 11.125 16.300014 13.408345 16.300014 16.225C 16.300014 19.041655 21.538284 21.325001 28 21.325001ZM 16.300014 16.225031L 16.300014 24.02503C 16.300014 26.875 21.550014 29.125 28 29.125C 34.449997 29.125 39.699997 26.875 39.699997 24.02503L 39.699997 16.225031M 16.300014 24.024971L 16.300014 31.825001C 16.300014 34.675003 21.550014 36.925003 28 36.925003C 34.449997 36.925003 39.699997 34.675003 39.699997 31.825001L 39.699997 24.024971M 16.600136 38.875L 16.600136 41.875M 24.100136 42.324852L 24.100136 44.874851M 31.600149 42.324852L 31.600149 44.874851M 39.100151 38.875L 39.100151 41.875"></path></g></g></g><g id="g-root-tx_devops_qu1kbyuv0etg-stroke" data-item-order="0" transform="translate(219, 38)"></g><g id="g-root-tx__quo4kuuuus5f-stroke" data-item-order="0" transform="translate(80, 560)"></g><g id="g-root-tx__94mz3iuv0ff3-stroke" data-item-order="0" transform="translate(80, 170)"></g><g id="g-root-tx_alembic_1ly14j2uuutjf-stroke" data-item-order="0" transform="translate(260, 560)"></g><g id="g-root-ic_2_8zyumuv0gzk-stroke" data-item-order="0" transform="translate(38, 230)"><g id="ic_2_8zyumuv0gzk-stroke" fill="none" stroke-linecap="round" stroke-linejoin="round" stroke-miterlimit="4" stroke="#de8431" stroke-width="2"><g><path d="M 13.7515 18.251499C 13.7515 21.565208 20.131443 24.251501 28.001501 24.251501C 35.871559 24.251501 42.251499 21.565208 42.251499 18.251499C 42.251499 14.937792 35.871559 12.2515 28.001501 12.2515C 20.131443 12.2515 13.7515 14.937792 13.7515 18.251499ZM 42.25 24.25C 42.25 27.565001 35.868999 30.25 28 30.25C 20.131001 30.25 13.75 27.565001 13.75 24.25M 42.25 31C 42.25 34.314999 35.868999 37 28 37C 20.131001 37 13.75 34.314999 13.75 31M 13.75 18.25L 13.75 37.75C 13.75 41.064999 20.131001 43.75 28 43.75C 35.868999 43.75 42.25 41.064999 42.25 37.75L 42.25 18.25"></path></g></g></g><g id="g-root-tx__mg3kmmuuuv43-stroke" data-item-order="0" transform="translate(428, 560)"></g><g id="g-root-tx_cursor_1q5qgj2uuw743-stroke" data-item-order="0" transform="translate(548, 554)"></g><g id="g-root-tx_githubac_959jceuuutj9-stroke" data-item-order="0" transform="translate(566, 170)"></g><g id="g-root-tx__8dkxauuus5k-stroke" data-item-order="0" transform="translate(278, 362)"></g></g></g></svg>